<svg width="24" height="24" viewBox="0 0 24 24" fill="none" xmlns="http://www.w3.org/2000/svg">
<g clip-path="url(#clip0_2_17)">
<path d="M10.937 16.5C10.8477 16.1539 10.6673 15.8381 10.4146 15.5854C10.1619 15.3327 9.84607 15.1523 9.5 15.063L3.365 13.481C3.26033 13.4513 3.16821 13.3883 3.10261 13.3014C3.03702 13.2146 3.00153 13.1088 3.00153 13C3.00153 12.8912 3.03702 12.7854 3.10261 12.6986C3.16821 12.6118 3.26033 12.5487 3.365 12.519L9.5 10.936C9.84595 10.8468 10.1617 10.6666 10.4144 10.414C10.6671 10.1615 10.8476 9.84589 10.937 9.50001L12.519 3.36501C12.5484 3.25992 12.6114 3.16735 12.6983 3.1014C12.7853 3.03545 12.8914 2.99976 13.0005 2.99976C13.1096 2.99976 13.2157 3.03545 13.3027 3.1014C13.3896 3.16735 13.4526 3.25992 13.482 3.36501L15.063 9.50001C15.1523 9.84608 15.3327 10.1619 15.5854 10.4146C15.8381 10.6673 16.1539 10.8477 16.5 10.937L22.635 12.518C22.7405 12.5471 22.8335 12.61 22.8998 12.6971C22.9661 12.7841 23.0021 12.8906 23.0021 13C23.0021 13.1094 22.9661 13.2159 22.8998 13.3029C22.8335 13.39 22.7405 13.4529 22.635 13.482L16.5 15.063C16.1539 15.1523 15.8381 15.3327 15.5854 15.5854C15.3327 15.8381 15.1523 16.1539 15.063 16.5L13.481 22.635C13.4516 22.7401 13.3886 22.8327 13.3017 22.8986C13.2147 22.9646 13.1086 23.0003 12.9995 23.0003C12.8904 23.0003 12.7843 22.9646 12.6973 22.8986C12.6104 22.8327 12.5474 22.7401 12.518 22.635L10.937 16.5Z" stroke="black" stroke-width="2" stroke-linecap="round" stroke-linejoin="round"/>
<path d="M21 4V8" stroke="black" stroke-width="2" stroke-linecap="round" stroke-linejoin="round"/>
<path d="M23 6H19" stroke="black" stroke-width="2" stroke-linecap="round" stroke-linejoin="round"/>
<path d="M5 18V20" stroke="black" stroke-width="2" stroke-linecap="round" stroke-linejoin="round"/>
<path d="M6 19H4" stroke="black" stroke-width="2" stroke-linecap="round" stroke-linejoin="round"/>
<path d="M9.937 15.5C9.84772 15.1539 9.66734 14.8381 9.41462 14.5854C9.1619 14.3327 8.84607 14.1523 8.5 14.063L2.365 12.481C2.26033 12.4513 2.16821 12.3883 2.10261 12.3014C2.03702 12.2146 2.00153 12.1088 2.00153 12C2.00153 11.8912 2.03702 11.7854 2.10261 11.6986C2.16821 11.6118 2.26033 11.5487 2.365 11.519L8.5 9.93601C8.84595 9.84681 9.16169 9.66658 9.4144 9.41404C9.66711 9.16151 9.84757 8.84589 9.937 8.50001L11.519 2.36501C11.5484 2.25992 11.6114 2.16735 11.6983 2.1014C11.7853 2.03545 11.8914 1.99976 12.0005 1.99976C12.1096 1.99976 12.2157 2.03545 12.3027 2.1014C12.3896 2.16735 12.4526 2.25992 12.482 2.36501L14.063 8.50001C14.1523 8.84608 14.3327 9.1619 14.5854 9.41462C14.8381 9.66734 15.1539 9.84773 15.5 9.93701L21.635 11.518C21.7405 11.5471 21.8335 11.61 21.8998 11.6971C21.9661 11.7841 22.0021 11.8906 22.0021 12C22.0021 12.1094 21.9661 12.2159 21.8998 12.3029C21.8335 12.39 21.7405 12.4529 21.635 12.482L15.5 14.063C15.1539 14.1523 14.8381 14.3327 14.5854 14.5854C14.3327 14.8381 14.1523 15.1539 14.063 15.5L12.481 21.635C12.4516 21.7401 12.3886 21.8327 12.3017 21.8986C12.2147 21.9646 12.1086 22.0003 11.9995 22.0003C11.8904 22.0003 11.7843 21.9646 11.6973 21.8986C11.6104 21.8327 11.5474 21.7401 11.518 21.635L9.937 15.5Z" stroke="#3B82F6" stroke-width="2" stroke-linecap="round" stroke-linejoin="round"/>
<path d="M20 3V7" stroke="#3B82F6" stroke-width="2" stroke-linecap="round" stroke-linejoin="round"/>
<path d="M22 5H18" stroke="#3B82F6" stroke-width="2" stroke-linecap="round" stroke-linejoin="round"/>
<path d="M4 17V19" stroke="#3B82F6" stroke-width="2" stroke-linecap="round" stroke-linejoin="round"/>
<path d="M5 18H3" stroke="#3B82F6" stroke-width="2" stroke-linecap="round" stroke-linejoin="round"/>
</g>
<defs>
<clipPath id="clip0_2_17">
<rect width="24" height="24" fill="white"/>
</clipPath>
</defs>
</svg>
